<svg xmlns="http://www.w3.org/2000/svg" width="600" height="600" viewBox="0 0 600 600">
  <defs>
    <linearGradient id="woodBase" x1="0" y1="0" x2="1" y2="1">
      <stop offset="0%" stop-color="#f3d39a" />
      <stop offset="50%" stop-color="#e2b979" />
      <stop offset="100%" stop-color="#d2a461" />
    </linearGradient>
    <filter id="grain" x="-20%" y="-20%" width="140%" height="140%">
      <feTurbulence type="fractalNoise" baseFrequency="0.8" numOctaves="2" seed="7" />
      <feColorMatrix type="saturate" values="0" />
      <feComponentTransfer>
        <feFuncA type="table" tableValues="0 0.2" />
      </feComponentTransfer>
    </filter>
  </defs>
  <rect width="600" height="600" fill="url(#woodBase)" />
  <g filter="url(#grain)">
    <rect width="600" height="600" fill="#000" opacity="0.25" />
  </g>
  <g opacity="0.25" stroke="#a7773e" stroke-width="6">
    <path d="M-50 80 C 100 60, 200 120, 350 100 S 650 120, 750 90" fill="none" />
    <path d="M-60 200 C 120 180, 260 240, 400 220 S 720 250, 760 210" fill="none" />
    <path d="M-40 330 C 140 300, 280 360, 420 340 S 700 370, 760 330" fill="none" />
    <path d="M-30 470 C 150 450, 300 520, 450 490 S 720 520, 760 480" fill="none" />
  </g>
</svg>
